<?xml version="1.0" encoding="utf-8"?>
<!-- Generator: Adobe Illustrator 19.1.0, SVG Export Plug-In . SVG Version: 6.00 Build 0)  -->
<svg version="1.1" id="Layer_1" xmlns="http://www.w3.org/2000/svg" xmlns:xlink="http://www.w3.org/1999/xlink" x="0px" y="0px"
	 viewBox="171 233.8 954.1 326.2" style="enable-background:new 171 233.8 954.1 326.2;" xml:space="preserve">
<style type="text/css">
	.st0{fill:#FFFFFF;}
	.st1{fill:#DB5248;}
</style>
<g>
	<path class="st0" d="M354.5,375.3c0,42.2-45.4,88.6-56.8,88.6c-11.4,0-56.8-46.4-56.8-88.6c0-31.4,25.4-56.8,56.8-56.8
		C329.1,318.5,354.5,343.9,354.5,375.3z"/>
	<g>
		<path class="st0" d="M423,342.8h35.7c18.4,0,31.9,12,31.9,31.1c0,19.2-13.5,31.6-31.9,31.6h-25.5V446H423V342.8L423,342.8z
			 M457.3,396.3c13.8,0,22.8-8.4,22.8-22.5c0-13.9-9-22-22.6-22h-24.4v44.5H457.3z"/>
		<path class="st0" d="M536.9,370.4c20.4,0,30.8,15.7,30.8,34.1c0,1.6-0.1,3.4-0.3,5h-56.7c0.4,18.8,13.4,29.2,28.6,29.2
			c8.1,0,16.4-3.4,22.5-8.8l4.6,7.6c-6.9,6.3-17.6,10.3-27.3,10.3c-22,0-38.8-15.9-38.8-38.6C500.3,384.9,516.9,370.4,536.9,370.4z
			 M557.6,401.5c-0.6-15.4-10-22.9-21-22.9c-12.3,0-23,8.1-25.4,22.9H557.6z"/>
		<path class="st0" d="M586.5,372.1h9.8v13.7c0,3.2-0.6,5.9-0.6,5.9h0.3c3.7-11.2,12.2-20.3,23.6-20.3c1.3,0,2.8,0.1,4,0.4v9.8
			c-0.4-0.1-2.2-0.3-3.7-0.3c-16.6,0-23.5,18.6-23.5,33.3V446h-10L586.5,372.1L586.5,372.1z"/>
		<path class="st0" d="M638.5,342.8h10.9v12.5h-10.9V342.8z M638.9,372.1h10V446h-10V372.1z"/>
		<path class="st0" d="M671.5,430c5.6,5.7,14.2,9,22.3,9c8.2,0,14.8-4.1,14.8-11.9c0-16.4-39.3-11.9-39.3-36.1
			c0-13.5,11.6-20.6,25.1-20.6c8.1,0,16.7,2.3,22.8,8.1l-4.7,7.5c-4.3-4.3-11.9-6.8-18.5-6.8c-7.8,0-14.8,3.4-14.8,11.5
			c0,16.9,39.5,11.9,39.5,36.3c0,12.2-10.4,20.8-25,20.8c-9.8,0-20.4-3.4-27.5-10.7L671.5,430z"/>
		<path class="st0" d="M770.7,370.4c9.7,0,20.4,3.4,27,10.6l-5.1,7.5c-5.1-5.3-13.4-9.1-21.6-9.1c-16.1,0-28.8,12.2-28.8,29.8
			c0,17.3,12.6,29.5,29.1,29.5c8.5,0,17.8-3.7,23.6-10.1l4.6,7.5c-6.5,7.2-17.5,11.7-28.8,11.7c-21.9,0-38.8-15.7-38.8-38.6
			C732,386.4,749,370.4,770.7,370.4z"/>
		<path class="st0" d="M848.7,370.4c21.6,0,39.1,16.4,39.1,38.3c0,22.3-17.5,39-39.1,39c-21.6,0-38.9-16.7-38.9-39
			C809.8,386.8,827.1,370.4,848.7,370.4z M848.7,438.6c15.9,0,28.8-12.6,28.8-29.9c0-16.7-12.9-29.4-28.8-29.4
			c-15.9,0-28.6,12.6-28.6,29.4C820.1,426,832.8,438.6,848.7,438.6z"/>
		<path class="st0" d="M906.4,372.1h9.5v7.8c0,3.2-0.4,5.7-0.4,5.7h0.3c4.6-9.5,14.2-15.3,25.7-15.3c20,0,32.1,15.9,32.1,38.6
			c0,23.5-13.8,38.8-33,38.8c-10.4,0-19.5-5.4-24.4-14.7h-0.3c0,0,0.4,2.6,0.4,6.5v35.8h-10L906.4,372.1L906.4,372.1z M939.6,438.8
			c13.1,0,23.9-10.9,23.9-29.7c0-18.1-9.7-29.7-23.5-29.7c-12.3,0-23.9,8.8-23.9,29.8C916.1,424.1,924.4,438.8,939.6,438.8z"/>
		<path class="st0" d="M1024.4,370.4c20.4,0,30.8,15.7,30.8,34.1c0,1.6-0.1,3.4-0.3,5h-56.7c0.4,18.8,13.4,29.2,28.6,29.2
			c8.1,0,16.4-3.4,22.5-8.8l4.6,7.6c-6.9,6.3-17.6,10.3-27.3,10.3c-22,0-38.8-15.9-38.8-38.6C987.9,384.9,1004.4,370.4,1024.4,370.4
			z M1045.1,401.5c-0.6-15.4-10-22.9-21-22.9c-12.3,0-23,8.1-25.4,22.9H1045.1z"/>
	</g>
	<path class="st1" d="M297.7,341c-2.7,0-5.4,0.3-7.9,0.9c4.6,2.3,7.8,7,7.8,12.5c0,7.7-6.2,13.9-13.9,13.9
		c-7.4,0-13.4-5.8-13.9-13.1c-4.1,5.7-6.5,12.6-6.5,20.2c0,19,15.4,34.5,34.5,34.5c19,0,34.5-15.4,34.5-34.5
		C332.1,356.5,316.7,341,297.7,341z"/>
</g>
</svg>
